<?xml version="1.0" encoding="UTF-8" standalone="no"?>
<!DOCTYPE svg PUBLIC "-//W3C//DTD SVG 1.1//EN"
 "http://www.w3.org/Graphics/SVG/1.1/DTD/svg11.dtd">
<!-- Generated by graphviz version 2.43.0 (0)
 -->
<!-- Title: GreatWesternTrail Pages: 1 -->
<svg width="2046pt" height="2784pt"
 viewBox="0.00 0.00 2045.50 2784.00" xmlns="http://www.w3.org/2000/svg" xmlns:xlink="http://www.w3.org/1999/xlink">
<g id="graph0" class="graph" transform="scale(1 1) rotate(0) translate(4 2780)">
<title>GreatWesternTrail</title>
<polygon fill="white" stroke="transparent" points="-4,4 -4,-2780 2041.5,-2780 2041.5,4 -4,4"/>
<!-- NeutralBuilding1 -->
<g id="node1" class="node">
<title>NeutralBuilding1</title>
<polygon fill="gray" stroke="black" points="1662,-2776 1513,-2776 1513,-2738 1662,-2738 1662,-2776"/>
<text text-anchor="middle" x="1587.5" y="-2760.8" font-family="Times,serif" font-size="14.00">Neutral Building 1</text>
<text text-anchor="middle" x="1587.5" y="-2745.8" font-family="Times,serif" font-size="14.00">empty=false</text>
</g>
<!-- GreenFarmer1 -->
<g id="node9" class="node">
<title>GreenFarmer1</title>
<polygon fill="green" stroke="black" points="1643,-2702 1036,-2702 1036,-2664 1643,-2664 1643,-2702"/>
<text text-anchor="middle" x="1339.5" y="-2686.8" font-family="Times,serif" font-size="14.00">Green Farmer 1</text>
<text text-anchor="middle" x="1339.5" y="-2671.8" font-family="Times,serif" font-size="14.00">empty=true;constReward=0;variableReward=0;grayHand=false;blackHand=false</text>
</g>
<!-- NeutralBuilding1&#45;&gt;GreenFarmer1 -->
<g id="edge28" class="edge">
<title>NeutralBuilding1&#45;&gt;GreenFarmer1</title>
<path fill="none" stroke="black" d="M1525.24,-2737.92C1490.75,-2727.91 1447.7,-2715.41 1411.73,-2704.97"/>
<polygon fill="black" stroke="black" points="1412.37,-2701.51 1401.79,-2702.08 1410.41,-2708.23 1412.37,-2701.51"/>
</g>
<!-- BasicBuilding1 -->
<g id="node28" class="node">
<title>BasicBuilding1</title>
<polygon fill="white" stroke="black" points="2011.5,-2702 1661.5,-2702 1661.5,-2664 2011.5,-2664 2011.5,-2702"/>
<text text-anchor="middle" x="1836.5" y="-2686.8" font-family="Times,serif" font-size="14.00">Basic Building 1</text>
<text text-anchor="middle" x="1836.5" y="-2671.8" font-family="Times,serif" font-size="14.00">empty=true;grayHand=false;blackHand=false</text>
</g>
<!-- NeutralBuilding1&#45;&gt;BasicBuilding1 -->
<g id="edge1" class="edge">
<title>NeutralBuilding1&#45;&gt;BasicBuilding1</title>
<path fill="none" stroke="black" d="M1650.01,-2737.92C1684.64,-2727.91 1727.87,-2715.41 1763.98,-2704.97"/>
<polygon fill="black" stroke="black" points="1765.33,-2708.22 1773.96,-2702.08 1763.38,-2701.5 1765.33,-2708.22"/>
</g>
<!-- NeutralBuilding2 -->
<g id="node2" class="node">
<title>NeutralBuilding2</title>
<polygon fill="gray" stroke="black" points="1688,-2258 1539,-2258 1539,-2220 1688,-2220 1688,-2258"/>
<text text-anchor="middle" x="1613.5" y="-2242.8" font-family="Times,serif" font-size="14.00">Neutral Building 2</text>
<text text-anchor="middle" x="1613.5" y="-2227.8" font-family="Times,serif" font-size="14.00">empty=false</text>
</g>
<!-- BlueFarmer1 -->
<g id="node13" class="node">
<title>BlueFarmer1</title>
<polygon fill="lightblue" stroke="black" points="1669,-2184 1062,-2184 1062,-2146 1669,-2146 1669,-2184"/>
<text text-anchor="middle" x="1365.5" y="-2168.8" font-family="Times,serif" font-size="14.00">Blue Farmer 1</text>
<text text-anchor="middle" x="1365.5" y="-2153.8" font-family="Times,serif" font-size="14.00">empty=true;constReward=0;variableReward=0;grayHand=false;blackHand=false</text>
</g>
<!-- NeutralBuilding2&#45;&gt;BlueFarmer1 -->
<g id="edge35" class="edge">
<title>NeutralBuilding2&#45;&gt;BlueFarmer1</title>
<path fill="none" stroke="black" d="M1551.24,-2219.92C1516.75,-2209.91 1473.7,-2197.41 1437.73,-2186.97"/>
<polygon fill="black" stroke="black" points="1438.37,-2183.51 1427.79,-2184.08 1436.41,-2190.23 1438.37,-2183.51"/>
</g>
<!-- GrainBuilding3 -->
<g id="node37" class="node">
<title>GrainBuilding3</title>
<polygon fill="white" stroke="black" points="2037.5,-2184 1687.5,-2184 1687.5,-2146 2037.5,-2146 2037.5,-2184"/>
<text text-anchor="middle" x="1862.5" y="-2168.8" font-family="Times,serif" font-size="14.00">Grain Building 3</text>
<text text-anchor="middle" x="1862.5" y="-2153.8" font-family="Times,serif" font-size="14.00">empty=true;grayHand=false;blackHand=false</text>
</g>
<!-- NeutralBuilding2&#45;&gt;GrainBuilding3 -->
<g id="edge5" class="edge">
<title>NeutralBuilding2&#45;&gt;GrainBuilding3</title>
<path fill="none" stroke="black" d="M1676.01,-2219.92C1710.64,-2209.91 1753.87,-2197.41 1789.98,-2186.97"/>
<polygon fill="black" stroke="black" points="1791.33,-2190.22 1799.96,-2184.08 1789.38,-2183.5 1791.33,-2190.22"/>
</g>
<!-- NeutralBuilding3 -->
<g id="node3" class="node">
<title>NeutralBuilding3</title>
<polygon fill="gray" stroke="black" points="1702,-1814 1553,-1814 1553,-1776 1702,-1776 1702,-1814"/>
<text text-anchor="middle" x="1627.5" y="-1798.8" font-family="Times,serif" font-size="14.00">Neutral Building 3</text>
<text text-anchor="middle" x="1627.5" y="-1783.8" font-family="Times,serif" font-size="14.00">empty=false</text>
</g>
<!-- BasicBuilding4 -->
<g id="node31" class="node">
<title>BasicBuilding4</title>
<polygon fill="white" stroke="black" points="1618.5,-1740 1268.5,-1740 1268.5,-1702 1618.5,-1702 1618.5,-1740"/>
<text text-anchor="middle" x="1443.5" y="-1724.8" font-family="Times,serif" font-size="14.00">Basic Building 4</text>
<text text-anchor="middle" x="1443.5" y="-1709.8" font-family="Times,serif" font-size="14.00">empty=true;grayHand=false;blackHand=false</text>
</g>
<!-- NeutralBuilding3&#45;&gt;BasicBuilding4 -->
<g id="edge10" class="edge">
<title>NeutralBuilding3&#45;&gt;BasicBuilding4</title>
<path fill="none" stroke="black" d="M1581.07,-1775.83C1556.13,-1766.07 1525.22,-1753.98 1499.02,-1743.72"/>
<polygon fill="black" stroke="black" points="1500.18,-1740.42 1489.6,-1740.04 1497.63,-1746.94 1500.18,-1740.42"/>
</g>
<!-- BasicBuilding5 -->
<g id="node32" class="node">
<title>BasicBuilding5</title>
<polygon fill="white" stroke="black" points="1986.5,-1740 1636.5,-1740 1636.5,-1702 1986.5,-1702 1986.5,-1740"/>
<text text-anchor="middle" x="1811.5" y="-1724.8" font-family="Times,serif" font-size="14.00">Basic Building 5</text>
<text text-anchor="middle" x="1811.5" y="-1709.8" font-family="Times,serif" font-size="14.00">empty=true;grayHand=false;blackHand=false</text>
</g>
<!-- NeutralBuilding3&#45;&gt;BasicBuilding5 -->
<g id="edge41" class="edge">
<title>NeutralBuilding3&#45;&gt;BasicBuilding5</title>
<path fill="none" stroke="black" d="M1673.93,-1775.83C1698.87,-1766.07 1729.78,-1753.98 1755.98,-1743.72"/>
<polygon fill="black" stroke="black" points="1757.37,-1746.94 1765.4,-1740.04 1754.82,-1740.42 1757.37,-1746.94"/>
</g>
<!-- NeutralBuilding4 -->
<g id="node4" class="node">
<title>NeutralBuilding4</title>
<polygon fill="gray" stroke="black" points="1518,-1666 1369,-1666 1369,-1628 1518,-1628 1518,-1666"/>
<text text-anchor="middle" x="1443.5" y="-1650.8" font-family="Times,serif" font-size="14.00">Neutral Building 4</text>
<text text-anchor="middle" x="1443.5" y="-1635.8" font-family="Times,serif" font-size="14.00">empty=false</text>
</g>
<!-- NeutralBuilding5 -->
<g id="node5" class="node">
<title>NeutralBuilding5</title>
<polygon fill="gray" stroke="black" points="1518,-1592 1369,-1592 1369,-1554 1518,-1554 1518,-1592"/>
<text text-anchor="middle" x="1443.5" y="-1576.8" font-family="Times,serif" font-size="14.00">Neutral Building 5</text>
<text text-anchor="middle" x="1443.5" y="-1561.8" font-family="Times,serif" font-size="14.00">empty=false</text>
</g>
<!-- NeutralBuilding4&#45;&gt;NeutralBuilding5 -->
<g id="edge12" class="edge">
<title>NeutralBuilding4&#45;&gt;NeutralBuilding5</title>
<path fill="none" stroke="black" d="M1443.5,-1627.83C1443.5,-1620.13 1443.5,-1610.97 1443.5,-1602.42"/>
<polygon fill="black" stroke="black" points="1447,-1602.41 1443.5,-1592.41 1440,-1602.41 1447,-1602.41"/>
</g>
<!-- GrainBuilding5 -->
<g id="node39" class="node">
<title>GrainBuilding5</title>
<polygon fill="white" stroke="black" points="1397.5,-1518 1047.5,-1518 1047.5,-1480 1397.5,-1480 1397.5,-1518"/>
<text text-anchor="middle" x="1222.5" y="-1502.8" font-family="Times,serif" font-size="14.00">Grain Building 5</text>
<text text-anchor="middle" x="1222.5" y="-1487.8" font-family="Times,serif" font-size="14.00">empty=true;grayHand=false;blackHand=false</text>
</g>
<!-- NeutralBuilding5&#45;&gt;GrainBuilding5 -->
<g id="edge13" class="edge">
<title>NeutralBuilding5&#45;&gt;GrainBuilding5</title>
<path fill="none" stroke="black" d="M1388.02,-1553.92C1357.54,-1544 1319.57,-1531.63 1287.69,-1521.24"/>
<polygon fill="black" stroke="black" points="1288.6,-1517.85 1278.01,-1518.08 1286.43,-1524.51 1288.6,-1517.85"/>
</g>
<!-- SpecialGrainBuilding3 -->
<g id="node49" class="node">
<title>SpecialGrainBuilding3</title>
<polygon fill="white" stroke="black" points="1922,-1518 1423,-1518 1423,-1480 1922,-1480 1922,-1518"/>
<text text-anchor="middle" x="1672.5" y="-1502.8" font-family="Times,serif" font-size="14.00">Special Grain Building 3</text>
<text text-anchor="middle" x="1672.5" y="-1487.8" font-family="Times,serif" font-size="14.00">empty=true;specialAction=grain;grayHand=false;blackHand=false</text>
</g>
<!-- NeutralBuilding5&#45;&gt;SpecialGrainBuilding3 -->
<g id="edge42" class="edge">
<title>NeutralBuilding5&#45;&gt;SpecialGrainBuilding3</title>
<path fill="none" stroke="black" d="M1500.99,-1553.92C1532.7,-1543.95 1572.25,-1531.52 1605.38,-1521.1"/>
<polygon fill="black" stroke="black" points="1606.5,-1524.42 1614.99,-1518.08 1604.4,-1517.74 1606.5,-1524.42"/>
</g>
<!-- NeutralBuilding6 -->
<g id="node6" class="node">
<title>NeutralBuilding6</title>
<polygon fill="gray" stroke="black" points="1510,-1074 1361,-1074 1361,-1036 1510,-1036 1510,-1074"/>
<text text-anchor="middle" x="1435.5" y="-1058.8" font-family="Times,serif" font-size="14.00">Neutral Building 6</text>
<text text-anchor="middle" x="1435.5" y="-1043.8" font-family="Times,serif" font-size="14.00">empty=false</text>
</g>
<!-- BasicBuilding7 -->
<g id="node34" class="node">
<title>BasicBuilding7</title>
<polygon fill="white" stroke="black" points="1242.5,-1000 892.5,-1000 892.5,-962 1242.5,-962 1242.5,-1000"/>
<text text-anchor="middle" x="1067.5" y="-984.8" font-family="Times,serif" font-size="14.00">Basic Building 7</text>
<text text-anchor="middle" x="1067.5" y="-969.8" font-family="Times,serif" font-size="14.00">empty=true;grayHand=false;blackHand=false</text>
</g>
<!-- NeutralBuilding6&#45;&gt;BasicBuilding7 -->
<g id="edge17" class="edge">
<title>NeutralBuilding6&#45;&gt;BasicBuilding7</title>
<path fill="none" stroke="black" d="M1360.59,-1039.34C1305.54,-1028.57 1230.12,-1013.82 1169.57,-1001.97"/>
<polygon fill="black" stroke="black" points="1170.08,-998.5 1159.6,-1000.02 1168.74,-1005.37 1170.08,-998.5"/>
</g>
<!-- GrainBuilding7 -->
<g id="node41" class="node">
<title>GrainBuilding7</title>
<polygon fill="white" stroke="black" points="1610.5,-1000 1260.5,-1000 1260.5,-962 1610.5,-962 1610.5,-1000"/>
<text text-anchor="middle" x="1435.5" y="-984.8" font-family="Times,serif" font-size="14.00">Grain Building 7</text>
<text text-anchor="middle" x="1435.5" y="-969.8" font-family="Times,serif" font-size="14.00">empty=true;grayHand=false;blackHand=false</text>
</g>
<!-- NeutralBuilding6&#45;&gt;GrainBuilding7 -->
<g id="edge49" class="edge">
<title>NeutralBuilding6&#45;&gt;GrainBuilding7</title>
<path fill="none" stroke="black" d="M1435.5,-1035.83C1435.5,-1028.13 1435.5,-1018.97 1435.5,-1010.42"/>
<polygon fill="black" stroke="black" points="1439,-1010.41 1435.5,-1000.41 1432,-1010.41 1439,-1010.41"/>
</g>
<!-- BuenosAiresExit7 -->
<g id="node56" class="node">
<title>BuenosAiresExit7</title>
<polygon fill="white" stroke="black" points="1786.5,-1000 1628.5,-1000 1628.5,-962 1786.5,-962 1786.5,-1000"/>
<text text-anchor="middle" x="1707.5" y="-984.8" font-family="Times,serif" font-size="14.00">Buenos Aires Exit 7</text>
<text text-anchor="middle" x="1707.5" y="-969.8" font-family="Times,serif" font-size="14.00">empty=true</text>
</g>
<!-- NeutralBuilding6&#45;&gt;BuenosAiresExit7 -->
<g id="edge62" class="edge">
<title>NeutralBuilding6&#45;&gt;BuenosAiresExit7</title>
<path fill="none" stroke="black" d="M1503.79,-1035.92C1541.94,-1025.82 1589.64,-1013.2 1629.29,-1002.7"/>
<polygon fill="black" stroke="black" points="1630.41,-1006.03 1639.19,-1000.08 1628.62,-999.26 1630.41,-1006.03"/>
</g>
<!-- NeutralBuilding7 -->
<g id="node7" class="node">
<title>NeutralBuilding7</title>
<polygon fill="gray" stroke="black" points="1326,-926 1177,-926 1177,-888 1326,-888 1326,-926"/>
<text text-anchor="middle" x="1251.5" y="-910.8" font-family="Times,serif" font-size="14.00">Neutral Building 7</text>
<text text-anchor="middle" x="1251.5" y="-895.8" font-family="Times,serif" font-size="14.00">empty=false</text>
</g>
<!-- YellowFarmer1 -->
<g id="node21" class="node">
<title>YellowFarmer1</title>
<polygon fill="yellow" stroke="black" points="1355,-852 748,-852 748,-814 1355,-814 1355,-852"/>
<text text-anchor="middle" x="1051.5" y="-836.8" font-family="Times,serif" font-size="14.00">Yellow Farmer 1</text>
<text text-anchor="middle" x="1051.5" y="-821.8" font-family="Times,serif" font-size="14.00">empty=true;constReward=6;variableReward=0;grayHand=false;blackHand=false</text>
</g>
<!-- NeutralBuilding7&#45;&gt;YellowFarmer1 -->
<g id="edge19" class="edge">
<title>NeutralBuilding7&#45;&gt;YellowFarmer1</title>
<path fill="none" stroke="black" d="M1201.29,-887.92C1173.95,-878.08 1139.94,-865.84 1111.24,-855.51"/>
<polygon fill="black" stroke="black" points="1112.33,-852.18 1101.73,-852.08 1109.95,-858.76 1112.33,-852.18"/>
</g>
<!-- BuenosAiresExit6 -->
<g id="node55" class="node">
<title>BuenosAiresExit6</title>
<polygon fill="white" stroke="black" points="1531.5,-852 1373.5,-852 1373.5,-814 1531.5,-814 1531.5,-852"/>
<text text-anchor="middle" x="1452.5" y="-836.8" font-family="Times,serif" font-size="14.00">Buenos Aires Exit 6</text>
<text text-anchor="middle" x="1452.5" y="-821.8" font-family="Times,serif" font-size="14.00">empty=true</text>
</g>
<!-- NeutralBuilding7&#45;&gt;BuenosAiresExit6 -->
<g id="edge61" class="edge">
<title>NeutralBuilding7&#45;&gt;BuenosAiresExit6</title>
<path fill="none" stroke="black" d="M1301.96,-887.92C1329.44,-878.08 1363.62,-865.84 1392.46,-855.51"/>
<polygon fill="black" stroke="black" points="1393.78,-858.75 1402.02,-852.08 1391.42,-852.16 1393.78,-858.75"/>
</g>
<!-- NeutralBuilding8 -->
<g id="node8" class="node">
<title>NeutralBuilding8</title>
<polygon fill="gray" stroke="black" points="926,-556 777,-556 777,-518 926,-518 926,-556"/>
<text text-anchor="middle" x="851.5" y="-540.8" font-family="Times,serif" font-size="14.00">Neutral Building 8</text>
<text text-anchor="middle" x="851.5" y="-525.8" font-family="Times,serif" font-size="14.00">empty=false</text>
</g>
<!-- YellowFarmer4 -->
<g id="node24" class="node">
<title>YellowFarmer4</title>
<polygon fill="yellow" stroke="black" points="1007,-408 400,-408 400,-370 1007,-370 1007,-408"/>
<text text-anchor="middle" x="703.5" y="-392.8" font-family="Times,serif" font-size="14.00">Yellow Farmer 4</text>
<text text-anchor="middle" x="703.5" y="-377.8" font-family="Times,serif" font-size="14.00">empty=true;constReward=3;variableReward=0;grayHand=false;blackHand=false</text>
</g>
<!-- NeutralBuilding8&#45;&gt;YellowFarmer4 -->
<g id="edge23" class="edge">
<title>NeutralBuilding8&#45;&gt;YellowFarmer4</title>
<path fill="none" stroke="black" d="M776.68,-531.8C703.84,-525.96 600.56,-512.44 575.5,-482 564.77,-468.96 566.16,-458.07 575.5,-444 584.55,-430.35 597.81,-420.15 612.41,-412.51"/>
<polygon fill="black" stroke="black" points="614.13,-415.57 621.64,-408.09 611.11,-409.25 614.13,-415.57"/>
</g>
<!-- SpecialBuilding3 -->
<g id="node45" class="node">
<title>SpecialBuilding3</title>
<polygon fill="white" stroke="black" points="1118,-482 585,-482 585,-444 1118,-444 1118,-482"/>
<text text-anchor="middle" x="851.5" y="-466.8" font-family="Times,serif" font-size="14.00">Special Building 3</text>
<text text-anchor="middle" x="851.5" y="-451.8" font-family="Times,serif" font-size="14.00">empty=true;specialAction=certificate;grayHand=false;blackHand=false</text>
</g>
<!-- NeutralBuilding8&#45;&gt;SpecialBuilding3 -->
<g id="edge53" class="edge">
<title>NeutralBuilding8&#45;&gt;SpecialBuilding3</title>
<path fill="none" stroke="black" d="M851.5,-517.83C851.5,-510.13 851.5,-500.97 851.5,-492.42"/>
<polygon fill="black" stroke="black" points="855,-492.41 851.5,-482.41 848,-492.41 855,-492.41"/>
</g>
<!-- BuenosAiresExit4 -->
<g id="node53" class="node">
<title>BuenosAiresExit4</title>
<polygon fill="white" stroke="black" points="1294.5,-482 1136.5,-482 1136.5,-444 1294.5,-444 1294.5,-482"/>
<text text-anchor="middle" x="1215.5" y="-466.8" font-family="Times,serif" font-size="14.00">Buenos Aires Exit 4</text>
<text text-anchor="middle" x="1215.5" y="-451.8" font-family="Times,serif" font-size="14.00">empty=true</text>
</g>
<!-- NeutralBuilding8&#45;&gt;BuenosAiresExit4 -->
<g id="edge59" class="edge">
<title>NeutralBuilding8&#45;&gt;BuenosAiresExit4</title>
<path fill="none" stroke="black" d="M926.22,-521.45C981.54,-510.64 1058.74,-495.5 1126.5,-482 1126.6,-481.98 1126.7,-481.96 1126.8,-481.94"/>
<polygon fill="black" stroke="black" points="1127.29,-485.41 1136.41,-480.02 1125.91,-478.55 1127.29,-485.41"/>
</g>
<!-- GreenFarmer2 -->
<g id="node10" class="node">
<title>GreenFarmer2</title>
<polygon fill="green" stroke="black" points="1643,-2628 1036,-2628 1036,-2590 1643,-2590 1643,-2628"/>
<text text-anchor="middle" x="1339.5" y="-2612.8" font-family="Times,serif" font-size="14.00">Green Farmer 2</text>
<text text-anchor="middle" x="1339.5" y="-2597.8" font-family="Times,serif" font-size="14.00">empty=true;constReward=1;variableReward=0;grayHand=false;blackHand=false</text>
</g>
<!-- GreenFarmer1&#45;&gt;GreenFarmer2 -->
<g id="edge29" class="edge">
<title>GreenFarmer1&#45;&gt;GreenFarmer2</title>
<path fill="none" stroke="black" d="M1339.5,-2663.83C1339.5,-2656.13 1339.5,-2646.97 1339.5,-2638.42"/>
<polygon fill="black" stroke="black" points="1343,-2638.41 1339.5,-2628.41 1336,-2638.41 1343,-2638.41"/>
</g>
<!-- GreenFarmer3 -->
<g id="node11" class="node">
<title>GreenFarmer3</title>
<polygon fill="green" stroke="black" points="1643,-2554 1036,-2554 1036,-2516 1643,-2516 1643,-2554"/>
<text text-anchor="middle" x="1339.5" y="-2538.8" font-family="Times,serif" font-size="14.00">Green Farmer 3</text>
<text text-anchor="middle" x="1339.5" y="-2523.8" font-family="Times,serif" font-size="14.00">empty=true;constReward=2;variableReward=0;grayHand=false;blackHand=false</text>
</g>
<!-- GreenFarmer2&#45;&gt;GreenFarmer3 -->
<g id="edge30" class="edge">
<title>GreenFarmer2&#45;&gt;GreenFarmer3</title>
<path fill="none" stroke="black" d="M1339.5,-2589.83C1339.5,-2582.13 1339.5,-2572.97 1339.5,-2564.42"/>
<polygon fill="black" stroke="black" points="1343,-2564.41 1339.5,-2554.41 1336,-2564.41 1343,-2564.41"/>
</g>
<!-- GreenFarmer4 -->
<g id="node12" class="node">
<title>GreenFarmer4</title>
<polygon fill="green" stroke="black" points="1643,-2480 1036,-2480 1036,-2442 1643,-2442 1643,-2480"/>
<text text-anchor="middle" x="1339.5" y="-2464.8" font-family="Times,serif" font-size="14.00">Green Farmer 4</text>
<text text-anchor="middle" x="1339.5" y="-2449.8" font-family="Times,serif" font-size="14.00">empty=true;constReward=3;variableReward=0;grayHand=false;blackHand=false</text>
</g>
<!-- GreenFarmer3&#45;&gt;GreenFarmer4 -->
<g id="edge31" class="edge">
<title>GreenFarmer3&#45;&gt;GreenFarmer4</title>
<path fill="none" stroke="black" d="M1339.5,-2515.83C1339.5,-2508.13 1339.5,-2498.97 1339.5,-2490.42"/>
<polygon fill="black" stroke="black" points="1343,-2490.41 1339.5,-2480.41 1336,-2490.41 1343,-2490.41"/>
</g>
<!-- SpecialGrainBuilding1 -->
<g id="node47" class="node">
<title>SpecialGrainBuilding1</title>
<polygon fill="white" stroke="black" points="1707,-2406 1174,-2406 1174,-2368 1707,-2368 1707,-2406"/>
<text text-anchor="middle" x="1440.5" y="-2390.8" font-family="Times,serif" font-size="14.00">Special Grain Building 1</text>
<text text-anchor="middle" x="1440.5" y="-2375.8" font-family="Times,serif" font-size="14.00">empty=true;specialAction=certificate;grayHand=false;blackHand=false</text>
</g>
<!-- GreenFarmer4&#45;&gt;SpecialGrainBuilding1 -->
<g id="edge32" class="edge">
<title>GreenFarmer4&#45;&gt;SpecialGrainBuilding1</title>
<path fill="none" stroke="black" d="M1364.99,-2441.83C1377.67,-2432.79 1393.16,-2421.75 1406.81,-2412.02"/>
<polygon fill="black" stroke="black" points="1408.91,-2414.82 1415.02,-2406.16 1404.85,-2409.12 1408.91,-2414.82"/>
</g>
<!-- BlueFarmer2 -->
<g id="node14" class="node">
<title>BlueFarmer2</title>
<polygon fill="lightblue" stroke="black" points="1669,-2110 1062,-2110 1062,-2072 1669,-2072 1669,-2110"/>
<text text-anchor="middle" x="1365.5" y="-2094.8" font-family="Times,serif" font-size="14.00">Blue Farmer 2</text>
<text text-anchor="middle" x="1365.5" y="-2079.8" font-family="Times,serif" font-size="14.00">empty=true;constReward=1;variableReward=0;grayHand=false;blackHand=false</text>
</g>
<!-- BlueFarmer1&#45;&gt;BlueFarmer2 -->
<g id="edge36" class="edge">
<title>BlueFarmer1&#45;&gt;BlueFarmer2</title>
<path fill="none" stroke="black" d="M1365.5,-2145.83C1365.5,-2138.13 1365.5,-2128.97 1365.5,-2120.42"/>
<polygon fill="black" stroke="black" points="1369,-2120.41 1365.5,-2110.41 1362,-2120.41 1369,-2120.41"/>
</g>
<!-- BlueFarmer3 -->
<g id="node15" class="node">
<title>BlueFarmer3</title>
<polygon fill="lightblue" stroke="black" points="1669,-2036 1062,-2036 1062,-1998 1669,-1998 1669,-2036"/>
<text text-anchor="middle" x="1365.5" y="-2020.8" font-family="Times,serif" font-size="14.00">Blue Farmer 3</text>
<text text-anchor="middle" x="1365.5" y="-2005.8" font-family="Times,serif" font-size="14.00">empty=true;constReward=2;variableReward=0;grayHand=false;blackHand=false</text>
</g>
<!-- BlueFarmer2&#45;&gt;BlueFarmer3 -->
<g id="edge37" class="edge">
<title>BlueFarmer2&#45;&gt;BlueFarmer3</title>
<path fill="none" stroke="black" d="M1365.5,-2071.83C1365.5,-2064.13 1365.5,-2054.97 1365.5,-2046.42"/>
<polygon fill="black" stroke="black" points="1369,-2046.41 1365.5,-2036.41 1362,-2046.41 1369,-2046.41"/>
</g>
<!-- BlueFarmer4 -->
<g id="node16" class="node">
<title>BlueFarmer4</title>
<polygon fill="lightblue" stroke="black" points="1698,-1962 1091,-1962 1091,-1924 1698,-1924 1698,-1962"/>
<text text-anchor="middle" x="1394.5" y="-1946.8" font-family="Times,serif" font-size="14.00">Blue Farmer 4</text>
<text text-anchor="middle" x="1394.5" y="-1931.8" font-family="Times,serif" font-size="14.00">empty=true;constReward=3;variableReward=0;grayHand=false;blackHand=false</text>
</g>
<!-- BlueFarmer3&#45;&gt;BlueFarmer4 -->
<g id="edge38" class="edge">
<title>BlueFarmer3&#45;&gt;BlueFarmer4</title>
<path fill="none" stroke="black" d="M1372.82,-1997.83C1375.99,-1989.96 1379.77,-1980.57 1383.28,-1971.85"/>
<polygon fill="black" stroke="black" points="1386.59,-1973 1387.08,-1962.41 1380.1,-1970.38 1386.59,-1973"/>
</g>
<!-- SpecialBuilding1 -->
<g id="node43" class="node">
<title>SpecialBuilding1</title>
<polygon fill="white" stroke="black" points="1654.5,-1888 1162.5,-1888 1162.5,-1850 1654.5,-1850 1654.5,-1888"/>
<text text-anchor="middle" x="1408.5" y="-1872.8" font-family="Times,serif" font-size="14.00">Special Building 1</text>
<text text-anchor="middle" x="1408.5" y="-1857.8" font-family="Times,serif" font-size="14.00">empty=true;specialAction=gold;grayHand=false;blackHand=false</text>
</g>
<!-- BlueFarmer4&#45;&gt;SpecialBuilding1 -->
<g id="edge39" class="edge">
<title>BlueFarmer4&#45;&gt;SpecialBuilding1</title>
<path fill="none" stroke="black" d="M1398.03,-1923.83C1399.53,-1916.13 1401.31,-1906.97 1402.97,-1898.42"/>
<polygon fill="black" stroke="black" points="1406.45,-1898.9 1404.92,-1888.41 1399.58,-1897.56 1406.45,-1898.9"/>
</g>
<!-- OrangeFarmer1 -->
<g id="node17" class="node">
<title>OrangeFarmer1</title>
<polygon fill="orange" stroke="black" points="1985,-1370 1378,-1370 1378,-1332 1985,-1332 1985,-1370"/>
<text text-anchor="middle" x="1681.5" y="-1354.8" font-family="Times,serif" font-size="14.00">Orange Farmer 1</text>
<text text-anchor="middle" x="1681.5" y="-1339.8" font-family="Times,serif" font-size="14.00">empty=true;constReward=0;variableReward=0;grayHand=false;blackHand=false</text>
</g>
<!-- OrangeFarmer2 -->
<g id="node18" class="node">
<title>OrangeFarmer2</title>
<polygon fill="orange" stroke="black" points="1988,-1296 1381,-1296 1381,-1258 1988,-1258 1988,-1296"/>
<text text-anchor="middle" x="1684.5" y="-1280.8" font-family="Times,serif" font-size="14.00">Orange Farmer 2</text>
<text text-anchor="middle" x="1684.5" y="-1265.8" font-family="Times,serif" font-size="14.00">empty=true;constReward=1;variableReward=0;grayHand=false;blackHand=false</text>
</g>
<!-- OrangeFarmer1&#45;&gt;OrangeFarmer2 -->
<g id="edge45" class="edge">
<title>OrangeFarmer1&#45;&gt;OrangeFarmer2</title>
<path fill="none" stroke="black" d="M1682.26,-1331.83C1682.58,-1324.13 1682.96,-1314.97 1683.32,-1306.42"/>
<polygon fill="black" stroke="black" points="1686.81,-1306.55 1683.73,-1296.41 1679.82,-1306.26 1686.81,-1306.55"/>
</g>
<!-- OrangeFarmer3 -->
<g id="node19" class="node">
<title>OrangeFarmer3</title>
<polygon fill="orange" stroke="black" points="1967,-1222 1360,-1222 1360,-1184 1967,-1184 1967,-1222"/>
<text text-anchor="middle" x="1663.5" y="-1206.8" font-family="Times,serif" font-size="14.00">Orange Farmer 3</text>
<text text-anchor="middle" x="1663.5" y="-1191.8" font-family="Times,serif" font-size="14.00">empty=true;constReward=2;variableReward=0;grayHand=false;blackHand=false</text>
</g>
<!-- OrangeFarmer2&#45;&gt;OrangeFarmer3 -->
<g id="edge46" class="edge">
<title>OrangeFarmer2&#45;&gt;OrangeFarmer3</title>
<path fill="none" stroke="black" d="M1679.2,-1257.83C1676.93,-1250.05 1674.23,-1240.77 1671.71,-1232.13"/>
<polygon fill="black" stroke="black" points="1675.03,-1231.03 1668.87,-1222.41 1668.31,-1232.99 1675.03,-1231.03"/>
</g>
<!-- OrangeFarmer4 -->
<g id="node20" class="node">
<title>OrangeFarmer4</title>
<polygon fill="orange" stroke="black" points="1946,-1148 1339,-1148 1339,-1110 1946,-1110 1946,-1148"/>
<text text-anchor="middle" x="1642.5" y="-1132.8" font-family="Times,serif" font-size="14.00">Orange Farmer 4</text>
<text text-anchor="middle" x="1642.5" y="-1117.8" font-family="Times,serif" font-size="14.00">empty=true;constReward=3;variableReward=0;grayHand=false;blackHand=false</text>
</g>
<!-- OrangeFarmer3&#45;&gt;OrangeFarmer4 -->
<g id="edge47" class="edge">
<title>OrangeFarmer3&#45;&gt;OrangeFarmer4</title>
<path fill="none" stroke="black" d="M1658.2,-1183.83C1655.93,-1176.05 1653.23,-1166.77 1650.71,-1158.13"/>
<polygon fill="black" stroke="black" points="1654.03,-1157.03 1647.87,-1148.41 1647.31,-1158.99 1654.03,-1157.03"/>
</g>
<!-- OrangeFarmer4&#45;&gt;NeutralBuilding6 -->
<g id="edge48" class="edge">
<title>OrangeFarmer4&#45;&gt;NeutralBuilding6</title>
<path fill="none" stroke="black" d="M1590.53,-1109.92C1562.11,-1100.04 1526.73,-1087.73 1496.95,-1077.37"/>
<polygon fill="black" stroke="black" points="1498.08,-1074.06 1487.49,-1074.08 1495.78,-1080.67 1498.08,-1074.06"/>
</g>
<!-- YellowFarmer2 -->
<g id="node22" class="node">
<title>YellowFarmer2</title>
<polygon fill="yellow" stroke="black" points="1155,-778 548,-778 548,-740 1155,-740 1155,-778"/>
<text text-anchor="middle" x="851.5" y="-762.8" font-family="Times,serif" font-size="14.00">Yellow Farmer 2</text>
<text text-anchor="middle" x="851.5" y="-747.8" font-family="Times,serif" font-size="14.00">empty=true;constReward=5;variableReward=0;grayHand=false;blackHand=false</text>
</g>
<!-- YellowFarmer1&#45;&gt;YellowFarmer2 -->
<g id="edge20" class="edge">
<title>YellowFarmer1&#45;&gt;YellowFarmer2</title>
<path fill="none" stroke="black" d="M1001.29,-813.92C973.95,-804.08 939.94,-791.84 911.24,-781.51"/>
<polygon fill="black" stroke="black" points="912.33,-778.18 901.73,-778.08 909.95,-784.76 912.33,-778.18"/>
</g>
<!-- BuenosAiresExit5 -->
<g id="node54" class="node">
<title>BuenosAiresExit5</title>
<polygon fill="white" stroke="black" points="1331.5,-778 1173.5,-778 1173.5,-740 1331.5,-740 1331.5,-778"/>
<text text-anchor="middle" x="1252.5" y="-762.8" font-family="Times,serif" font-size="14.00">Buenos Aires Exit 5</text>
<text text-anchor="middle" x="1252.5" y="-747.8" font-family="Times,serif" font-size="14.00">empty=true</text>
</g>
<!-- YellowFarmer1&#45;&gt;BuenosAiresExit5 -->
<g id="edge60" class="edge">
<title>YellowFarmer1&#45;&gt;BuenosAiresExit5</title>
<path fill="none" stroke="black" d="M1101.96,-813.92C1129.44,-804.08 1163.62,-791.84 1192.46,-781.51"/>
<polygon fill="black" stroke="black" points="1193.78,-784.75 1202.02,-778.08 1191.42,-778.16 1193.78,-784.75"/>
</g>
<!-- YellowFarmer3 -->
<g id="node23" class="node">
<title>YellowFarmer3</title>
<polygon fill="yellow" stroke="black" points="1155,-630 548,-630 548,-592 1155,-592 1155,-630"/>
<text text-anchor="middle" x="851.5" y="-614.8" font-family="Times,serif" font-size="14.00">Yellow Farmer 3</text>
<text text-anchor="middle" x="851.5" y="-599.8" font-family="Times,serif" font-size="14.00">empty=true;constReward=4;variableReward=0;grayHand=false;blackHand=false</text>
</g>
<!-- YellowFarmer2&#45;&gt;YellowFarmer3 -->
<g id="edge21" class="edge">
<title>YellowFarmer2&#45;&gt;YellowFarmer3</title>
<path fill="none" stroke="black" d="M807.57,-739.75C792.73,-731.22 777.83,-719.46 769.5,-704 761.49,-689.13 761.49,-680.87 769.5,-666 776.2,-653.56 787.16,-643.52 798.91,-635.62"/>
<polygon fill="black" stroke="black" points="800.92,-638.5 807.57,-630.25 797.22,-632.55 800.92,-638.5"/>
</g>
<!-- GrainBuilding8 -->
<g id="node42" class="node">
<title>GrainBuilding8</title>
<polygon fill="white" stroke="black" points="1128.5,-704 778.5,-704 778.5,-666 1128.5,-666 1128.5,-704"/>
<text text-anchor="middle" x="953.5" y="-688.8" font-family="Times,serif" font-size="14.00">Grain Building 8</text>
<text text-anchor="middle" x="953.5" y="-673.8" font-family="Times,serif" font-size="14.00">empty=true;grayHand=false;blackHand=false</text>
</g>
<!-- YellowFarmer2&#45;&gt;GrainBuilding8 -->
<g id="edge51" class="edge">
<title>YellowFarmer2&#45;&gt;GrainBuilding8</title>
<path fill="none" stroke="black" d="M877.24,-739.83C890.04,-730.79 905.69,-719.75 919.47,-710.02"/>
<polygon fill="black" stroke="black" points="921.62,-712.79 927.77,-704.16 917.58,-707.07 921.62,-712.79"/>
</g>
<!-- YellowFarmer3&#45;&gt;NeutralBuilding8 -->
<g id="edge22" class="edge">
<title>YellowFarmer3&#45;&gt;NeutralBuilding8</title>
<path fill="none" stroke="black" d="M851.5,-591.83C851.5,-584.13 851.5,-574.97 851.5,-566.42"/>
<polygon fill="black" stroke="black" points="855,-566.41 851.5,-556.41 848,-566.41 855,-566.41"/>
</g>
<!-- YellowFarmer5 -->
<g id="node25" class="node">
<title>YellowFarmer5</title>
<polygon fill="yellow" stroke="black" points="807,-334 200,-334 200,-296 807,-296 807,-334"/>
<text text-anchor="middle" x="503.5" y="-318.8" font-family="Times,serif" font-size="14.00">Yellow Farmer 5</text>
<text text-anchor="middle" x="503.5" y="-303.8" font-family="Times,serif" font-size="14.00">empty=true;constReward=2;variableReward=0;grayHand=false;blackHand=false</text>
</g>
<!-- YellowFarmer4&#45;&gt;YellowFarmer5 -->
<g id="edge24" class="edge">
<title>YellowFarmer4&#45;&gt;YellowFarmer5</title>
<path fill="none" stroke="black" d="M653.29,-369.92C625.95,-360.08 591.94,-347.84 563.24,-337.51"/>
<polygon fill="black" stroke="black" points="564.33,-334.18 553.73,-334.08 561.95,-340.76 564.33,-334.18"/>
</g>
<!-- BuenosAiresExit3 -->
<g id="node52" class="node">
<title>BuenosAiresExit3</title>
<polygon fill="white" stroke="black" points="983.5,-334 825.5,-334 825.5,-296 983.5,-296 983.5,-334"/>
<text text-anchor="middle" x="904.5" y="-318.8" font-family="Times,serif" font-size="14.00">Buenos Aires Exit 3</text>
<text text-anchor="middle" x="904.5" y="-303.8" font-family="Times,serif" font-size="14.00">empty=true</text>
</g>
<!-- YellowFarmer4&#45;&gt;BuenosAiresExit3 -->
<g id="edge58" class="edge">
<title>YellowFarmer4&#45;&gt;BuenosAiresExit3</title>
<path fill="none" stroke="black" d="M753.96,-369.92C781.44,-360.08 815.62,-347.84 844.46,-337.51"/>
<polygon fill="black" stroke="black" points="845.78,-340.75 854.02,-334.08 843.42,-334.16 845.78,-340.75"/>
</g>
<!-- YellowFarmer6 -->
<g id="node26" class="node">
<title>YellowFarmer6</title>
<polygon fill="yellow" stroke="black" points="807,-186 200,-186 200,-148 807,-148 807,-186"/>
<text text-anchor="middle" x="503.5" y="-170.8" font-family="Times,serif" font-size="14.00">Yellow Farmer 6</text>
<text text-anchor="middle" x="503.5" y="-155.8" font-family="Times,serif" font-size="14.00">empty=true;constReward=1;variableReward=0;grayHand=false;blackHand=false</text>
</g>
<!-- YellowFarmer5&#45;&gt;YellowFarmer6 -->
<g id="edge25" class="edge">
<title>YellowFarmer5&#45;&gt;YellowFarmer6</title>
<path fill="none" stroke="black" d="M430.66,-295.9C412.92,-287.88 396.03,-276.4 385.5,-260 376.37,-245.79 376.37,-236.21 385.5,-222 394.22,-208.42 407.3,-198.21 421.61,-190.55"/>
<polygon fill="black" stroke="black" points="423.23,-193.66 430.66,-186.1 420.14,-187.38 423.23,-193.66"/>
</g>
<!-- SpecialBuilding4 -->
<g id="node46" class="node">
<title>SpecialBuilding4</title>
<polygon fill="white" stroke="black" points="886.5,-260 394.5,-260 394.5,-222 886.5,-222 886.5,-260"/>
<text text-anchor="middle" x="640.5" y="-244.8" font-family="Times,serif" font-size="14.00">Special Building 4</text>
<text text-anchor="middle" x="640.5" y="-229.8" font-family="Times,serif" font-size="14.00">empty=true;specialAction=gold;grayHand=false;blackHand=false</text>
</g>
<!-- YellowFarmer5&#45;&gt;SpecialBuilding4 -->
<g id="edge55" class="edge">
<title>YellowFarmer5&#45;&gt;SpecialBuilding4</title>
<path fill="none" stroke="black" d="M538.07,-295.83C555.92,-286.45 577.88,-274.91 596.88,-264.92"/>
<polygon fill="black" stroke="black" points="598.72,-267.91 605.94,-260.16 595.46,-261.72 598.72,-267.91"/>
</g>
<!-- YellowFarmer7 -->
<g id="node27" class="node">
<title>YellowFarmer7</title>
<polygon fill="yellow" stroke="black" points="607,-112 0,-112 0,-74 607,-74 607,-112"/>
<text text-anchor="middle" x="303.5" y="-96.8" font-family="Times,serif" font-size="14.00">Yellow Farmer 7</text>
<text text-anchor="middle" x="303.5" y="-81.8" font-family="Times,serif" font-size="14.00">empty=true;constReward=0;variableReward=0;grayHand=false;blackHand=false</text>
</g>
<!-- YellowFarmer6&#45;&gt;YellowFarmer7 -->
<g id="edge26" class="edge">
<title>YellowFarmer6&#45;&gt;YellowFarmer7</title>
<path fill="none" stroke="black" d="M453.29,-147.92C425.95,-138.08 391.94,-125.84 363.24,-115.51"/>
<polygon fill="black" stroke="black" points="364.33,-112.18 353.73,-112.08 361.95,-118.76 364.33,-112.18"/>
</g>
<!-- BuenosAiresExit2 -->
<g id="node51" class="node">
<title>BuenosAiresExit2</title>
<polygon fill="white" stroke="black" points="783.5,-112 625.5,-112 625.5,-74 783.5,-74 783.5,-112"/>
<text text-anchor="middle" x="704.5" y="-96.8" font-family="Times,serif" font-size="14.00">Buenos Aires Exit 2</text>
<text text-anchor="middle" x="704.5" y="-81.8" font-family="Times,serif" font-size="14.00">empty=true</text>
</g>
<!-- YellowFarmer6&#45;&gt;BuenosAiresExit2 -->
<g id="edge57" class="edge">
<title>YellowFarmer6&#45;&gt;BuenosAiresExit2</title>
<path fill="none" stroke="black" d="M553.96,-147.92C581.44,-138.08 615.62,-125.84 644.46,-115.51"/>
<polygon fill="black" stroke="black" points="645.78,-118.75 654.02,-112.08 643.42,-112.16 645.78,-118.75"/>
</g>
<!-- BuenosAiresExit1 -->
<g id="node50" class="node">
<title>BuenosAiresExit1</title>
<polygon fill="white" stroke="black" points="382.5,-38 224.5,-38 224.5,0 382.5,0 382.5,-38"/>
<text text-anchor="middle" x="303.5" y="-22.8" font-family="Times,serif" font-size="14.00">Buenos Aires Exit 1</text>
<text text-anchor="middle" x="303.5" y="-7.8" font-family="Times,serif" font-size="14.00">empty=true</text>
</g>
<!-- YellowFarmer7&#45;&gt;BuenosAiresExit1 -->
<g id="edge27" class="edge">
<title>YellowFarmer7&#45;&gt;BuenosAiresExit1</title>
<path fill="none" stroke="black" d="M303.5,-73.83C303.5,-66.13 303.5,-56.97 303.5,-48.42"/>
<polygon fill="black" stroke="black" points="307,-48.41 303.5,-38.41 300,-48.41 307,-48.41"/>
</g>
<!-- GrainBuilding1 -->
<g id="node35" class="node">
<title>GrainBuilding1</title>
<polygon fill="white" stroke="black" points="2011.5,-2628 1661.5,-2628 1661.5,-2590 2011.5,-2590 2011.5,-2628"/>
<text text-anchor="middle" x="1836.5" y="-2612.8" font-family="Times,serif" font-size="14.00">Grain Building 1</text>
<text text-anchor="middle" x="1836.5" y="-2597.8" font-family="Times,serif" font-size="14.00">empty=true;grayHand=false;blackHand=false</text>
</g>
<!-- BasicBuilding1&#45;&gt;GrainBuilding1 -->
<g id="edge2" class="edge">
<title>BasicBuilding1&#45;&gt;GrainBuilding1</title>
<path fill="none" stroke="black" d="M1836.5,-2663.83C1836.5,-2656.13 1836.5,-2646.97 1836.5,-2638.42"/>
<polygon fill="black" stroke="black" points="1840,-2638.41 1836.5,-2628.41 1833,-2638.41 1840,-2638.41"/>
</g>
<!-- BasicBuilding2 -->
<g id="node29" class="node">
<title>BasicBuilding2</title>
<polygon fill="white" stroke="black" points="2037.5,-2036 1687.5,-2036 1687.5,-1998 2037.5,-1998 2037.5,-2036"/>
<text text-anchor="middle" x="1862.5" y="-2020.8" font-family="Times,serif" font-size="14.00">Basic Building 2</text>
<text text-anchor="middle" x="1862.5" y="-2005.8" font-family="Times,serif" font-size="14.00">empty=true;grayHand=false;blackHand=false</text>
</g>
<!-- BasicBuilding3 -->
<g id="node30" class="node">
<title>BasicBuilding3</title>
<polygon fill="white" stroke="black" points="2029.5,-1888 1679.5,-1888 1679.5,-1850 2029.5,-1850 2029.5,-1888"/>
<text text-anchor="middle" x="1854.5" y="-1872.8" font-family="Times,serif" font-size="14.00">Basic Building 3</text>
<text text-anchor="middle" x="1854.5" y="-1857.8" font-family="Times,serif" font-size="14.00">empty=true;grayHand=false;blackHand=false</text>
</g>
<!-- BasicBuilding2&#45;&gt;BasicBuilding3 -->
<g id="edge8" class="edge">
<title>BasicBuilding2&#45;&gt;BasicBuilding3</title>
<path fill="none" stroke="black" d="M1861.5,-1997.8C1860.14,-1972.89 1857.67,-1927.89 1856.06,-1898.49"/>
<polygon fill="black" stroke="black" points="1859.55,-1898.22 1855.51,-1888.43 1852.56,-1898.6 1859.55,-1898.22"/>
</g>
<!-- BasicBuilding3&#45;&gt;NeutralBuilding3 -->
<g id="edge9" class="edge">
<title>BasicBuilding3&#45;&gt;NeutralBuilding3</title>
<path fill="none" stroke="black" d="M1797.51,-1849.92C1766.21,-1840 1727.21,-1827.63 1694.46,-1817.24"/>
<polygon fill="black" stroke="black" points="1695.1,-1813.77 1684.51,-1814.08 1692.99,-1820.44 1695.1,-1813.77"/>
</g>
<!-- BasicBuilding4&#45;&gt;NeutralBuilding4 -->
<g id="edge11" class="edge">
<title>BasicBuilding4&#45;&gt;NeutralBuilding4</title>
<path fill="none" stroke="black" d="M1443.5,-1701.83C1443.5,-1694.13 1443.5,-1684.97 1443.5,-1676.42"/>
<polygon fill="black" stroke="black" points="1447,-1676.41 1443.5,-1666.41 1440,-1676.41 1447,-1676.41"/>
</g>
<!-- BasicBuilding6 -->
<g id="node33" class="node">
<title>BasicBuilding6</title>
<polygon fill="white" stroke="black" points="1362.5,-1296 1012.5,-1296 1012.5,-1258 1362.5,-1258 1362.5,-1296"/>
<text text-anchor="middle" x="1187.5" y="-1280.8" font-family="Times,serif" font-size="14.00">Basic Building 6</text>
<text text-anchor="middle" x="1187.5" y="-1265.8" font-family="Times,serif" font-size="14.00">empty=true;grayHand=false;blackHand=false</text>
</g>
<!-- BasicBuilding6&#45;&gt;NeutralBuilding6 -->
<g id="edge16" class="edge">
<title>BasicBuilding6&#45;&gt;NeutralBuilding6</title>
<path fill="none" stroke="black" d="M1199.31,-1258C1221.56,-1225.17 1272.59,-1154.82 1329.5,-1110 1345.04,-1097.76 1363.78,-1087.12 1381.16,-1078.6"/>
<polygon fill="black" stroke="black" points="1383.12,-1081.54 1390.65,-1074.09 1380.12,-1075.22 1383.12,-1081.54"/>
</g>
<!-- BasicBuilding7&#45;&gt;NeutralBuilding7 -->
<g id="edge18" class="edge">
<title>BasicBuilding7&#45;&gt;NeutralBuilding7</title>
<path fill="none" stroke="black" d="M1113.93,-961.83C1138.87,-952.07 1169.78,-939.98 1195.98,-929.72"/>
<polygon fill="black" stroke="black" points="1197.37,-932.94 1205.4,-926.04 1194.82,-926.42 1197.37,-932.94"/>
</g>
<!-- GrainBuilding2 -->
<g id="node36" class="node">
<title>GrainBuilding2</title>
<polygon fill="white" stroke="black" points="2011.5,-2480 1661.5,-2480 1661.5,-2442 2011.5,-2442 2011.5,-2480"/>
<text text-anchor="middle" x="1836.5" y="-2464.8" font-family="Times,serif" font-size="14.00">Grain Building 2</text>
<text text-anchor="middle" x="1836.5" y="-2449.8" font-family="Times,serif" font-size="14.00">empty=true;grayHand=false;blackHand=false</text>
</g>
<!-- GrainBuilding1&#45;&gt;GrainBuilding2 -->
<g id="edge3" class="edge">
<title>GrainBuilding1&#45;&gt;GrainBuilding2</title>
<path fill="none" stroke="black" d="M1836.5,-2589.8C1836.5,-2564.89 1836.5,-2519.89 1836.5,-2490.49"/>
<polygon fill="black" stroke="black" points="1840,-2490.43 1836.5,-2480.43 1833,-2490.43 1840,-2490.43"/>
</g>
<!-- GrainBuilding2&#45;&gt;NeutralBuilding2 -->
<g id="edge4" class="edge">
<title>GrainBuilding2&#45;&gt;NeutralBuilding2</title>
<path fill="none" stroke="black" d="M1829.49,-2441.84C1815.76,-2408.45 1782.37,-2336.79 1733.5,-2294 1718.28,-2280.68 1699.24,-2270.11 1680.83,-2261.98"/>
<polygon fill="black" stroke="black" points="1682.15,-2258.74 1671.58,-2258.08 1679.43,-2265.19 1682.15,-2258.74"/>
</g>
<!-- GrainBuilding4 -->
<g id="node38" class="node">
<title>GrainBuilding4</title>
<polygon fill="white" stroke="black" points="2037.5,-2110 1687.5,-2110 1687.5,-2072 2037.5,-2072 2037.5,-2110"/>
<text text-anchor="middle" x="1862.5" y="-2094.8" font-family="Times,serif" font-size="14.00">Grain Building 4</text>
<text text-anchor="middle" x="1862.5" y="-2079.8" font-family="Times,serif" font-size="14.00">empty=true;grayHand=false;blackHand=false</text>
</g>
<!-- GrainBuilding3&#45;&gt;GrainBuilding4 -->
<g id="edge6" class="edge">
<title>GrainBuilding3&#45;&gt;GrainBuilding4</title>
<path fill="none" stroke="black" d="M1862.5,-2145.83C1862.5,-2138.13 1862.5,-2128.97 1862.5,-2120.42"/>
<polygon fill="black" stroke="black" points="1866,-2120.41 1862.5,-2110.41 1859,-2120.41 1866,-2120.41"/>
</g>
<!-- GrainBuilding4&#45;&gt;BasicBuilding2 -->
<g id="edge7" class="edge">
<title>GrainBuilding4&#45;&gt;BasicBuilding2</title>
<path fill="none" stroke="black" d="M1862.5,-2071.83C1862.5,-2064.13 1862.5,-2054.97 1862.5,-2046.42"/>
<polygon fill="black" stroke="black" points="1866,-2046.41 1862.5,-2036.41 1859,-2046.41 1866,-2046.41"/>
</g>
<!-- GrainBuilding6 -->
<g id="node40" class="node">
<title>GrainBuilding6</title>
<polygon fill="white" stroke="black" points="1389.5,-1444 1039.5,-1444 1039.5,-1406 1389.5,-1406 1389.5,-1444"/>
<text text-anchor="middle" x="1214.5" y="-1428.8" font-family="Times,serif" font-size="14.00">Grain Building 6</text>
<text text-anchor="middle" x="1214.5" y="-1413.8" font-family="Times,serif" font-size="14.00">empty=true;grayHand=false;blackHand=false</text>
</g>
<!-- GrainBuilding5&#45;&gt;GrainBuilding6 -->
<g id="edge14" class="edge">
<title>GrainBuilding5&#45;&gt;GrainBuilding6</title>
<path fill="none" stroke="black" d="M1220.48,-1479.83C1219.63,-1472.13 1218.61,-1462.97 1217.66,-1454.42"/>
<polygon fill="black" stroke="black" points="1221.13,-1453.97 1216.55,-1444.41 1214.17,-1454.74 1221.13,-1453.97"/>
</g>
<!-- GrainBuilding6&#45;&gt;BasicBuilding6 -->
<g id="edge15" class="edge">
<title>GrainBuilding6&#45;&gt;BasicBuilding6</title>
<path fill="none" stroke="black" d="M1211.14,-1405.8C1206.53,-1380.89 1198.21,-1335.89 1192.77,-1306.49"/>
<polygon fill="black" stroke="black" points="1196.17,-1305.62 1190.91,-1296.43 1189.28,-1306.89 1196.17,-1305.62"/>
</g>
<!-- GrainBuilding7&#45;&gt;NeutralBuilding7 -->
<g id="edge50" class="edge">
<title>GrainBuilding7&#45;&gt;NeutralBuilding7</title>
<path fill="none" stroke="black" d="M1389.07,-961.83C1364.13,-952.07 1333.22,-939.98 1307.02,-929.72"/>
<polygon fill="black" stroke="black" points="1308.18,-926.42 1297.6,-926.04 1305.63,-932.94 1308.18,-926.42"/>
</g>
<!-- GrainBuilding8&#45;&gt;YellowFarmer3 -->
<g id="edge52" class="edge">
<title>GrainBuilding8&#45;&gt;YellowFarmer3</title>
<path fill="none" stroke="black" d="M927.76,-665.83C914.96,-656.79 899.31,-645.75 885.53,-636.02"/>
<polygon fill="black" stroke="black" points="887.42,-633.07 877.23,-630.16 883.38,-638.79 887.42,-633.07"/>
</g>
<!-- SpecialBuilding1&#45;&gt;NeutralBuilding3 -->
<g id="edge40" class="edge">
<title>SpecialBuilding1&#45;&gt;NeutralBuilding3</title>
<path fill="none" stroke="black" d="M1463.48,-1849.92C1493.68,-1840 1531.31,-1827.63 1562.9,-1817.24"/>
<polygon fill="black" stroke="black" points="1564.09,-1820.53 1572.5,-1814.08 1561.9,-1813.88 1564.09,-1820.53"/>
</g>
<!-- SpecialBuilding2 -->
<g id="node44" class="node">
<title>SpecialBuilding2</title>
<polygon fill="white" stroke="black" points="1946,-1444 1413,-1444 1413,-1406 1946,-1406 1946,-1444"/>
<text text-anchor="middle" x="1679.5" y="-1428.8" font-family="Times,serif" font-size="14.00">Special Building 2</text>
<text text-anchor="middle" x="1679.5" y="-1413.8" font-family="Times,serif" font-size="14.00">empty=true;specialAction=certificate;grayHand=false;blackHand=false</text>
</g>
<!-- SpecialBuilding2&#45;&gt;OrangeFarmer1 -->
<g id="edge44" class="edge">
<title>SpecialBuilding2&#45;&gt;OrangeFarmer1</title>
<path fill="none" stroke="black" d="M1680,-1405.83C1680.22,-1398.13 1680.47,-1388.97 1680.71,-1380.42"/>
<polygon fill="black" stroke="black" points="1684.21,-1380.51 1680.99,-1370.41 1677.21,-1380.31 1684.21,-1380.51"/>
</g>
<!-- SpecialBuilding3&#45;&gt;YellowFarmer4 -->
<g id="edge54" class="edge">
<title>SpecialBuilding3&#45;&gt;YellowFarmer4</title>
<path fill="none" stroke="black" d="M814.15,-443.83C794.62,-434.33 770.54,-422.61 749.83,-412.54"/>
<polygon fill="black" stroke="black" points="751.1,-409.27 740.58,-408.04 748.04,-415.56 751.1,-409.27"/>
</g>
<!-- SpecialBuilding4&#45;&gt;YellowFarmer6 -->
<g id="edge56" class="edge">
<title>SpecialBuilding4&#45;&gt;YellowFarmer6</title>
<path fill="none" stroke="black" d="M605.93,-221.83C588.08,-212.45 566.12,-200.91 547.12,-190.92"/>
<polygon fill="black" stroke="black" points="548.54,-187.72 538.06,-186.16 545.28,-193.91 548.54,-187.72"/>
</g>
<!-- SpecialGrainBuilding2 -->
<g id="node48" class="node">
<title>SpecialGrainBuilding2</title>
<polygon fill="white" stroke="black" points="1724,-2332 1225,-2332 1225,-2294 1724,-2294 1724,-2332"/>
<text text-anchor="middle" x="1474.5" y="-2316.8" font-family="Times,serif" font-size="14.00">Special Grain Building 2</text>
<text text-anchor="middle" x="1474.5" y="-2301.8" font-family="Times,serif" font-size="14.00">empty=true;specialAction=grain;grayHand=false;blackHand=false</text>
</g>
<!-- SpecialGrainBuilding1&#45;&gt;SpecialGrainBuilding2 -->
<g id="edge33" class="edge">
<title>SpecialGrainBuilding1&#45;&gt;SpecialGrainBuilding2</title>
<path fill="none" stroke="black" d="M1449.08,-2367.83C1452.84,-2359.88 1457.33,-2350.37 1461.48,-2341.57"/>
<polygon fill="black" stroke="black" points="1464.7,-2342.95 1465.8,-2332.41 1458.37,-2339.96 1464.7,-2342.95"/>
</g>
<!-- SpecialGrainBuilding2&#45;&gt;NeutralBuilding2 -->
<g id="edge34" class="edge">
<title>SpecialGrainBuilding2&#45;&gt;NeutralBuilding2</title>
<path fill="none" stroke="black" d="M1509.58,-2293.83C1527.77,-2284.41 1550.17,-2272.81 1569.51,-2262.79"/>
<polygon fill="black" stroke="black" points="1571.17,-2265.87 1578.44,-2258.16 1567.95,-2259.65 1571.17,-2265.87"/>
</g>
<!-- SpecialGrainBuilding3&#45;&gt;SpecialBuilding2 -->
<g id="edge43" class="edge">
<title>SpecialGrainBuilding3&#45;&gt;SpecialBuilding2</title>
<path fill="none" stroke="black" d="M1674.27,-1479.83C1675.02,-1472.13 1675.91,-1462.97 1676.74,-1454.42"/>
<polygon fill="black" stroke="black" points="1680.23,-1454.71 1677.71,-1444.41 1673.26,-1454.03 1680.23,-1454.71"/>
</g>
</g>
</svg>
